<svg
  id="logo"
  xmlns="http://www.w3.org/2000/svg"
  width="250px"
  viewBox="0 0 500 500"
>
  <g class="lines" fill="none" stroke="#000000" stroke-width="3">
    <path
      d="M 74.11,214.00
           C 64.71,214.00 56.16,212.45 48.44,209.36
             40.72,206.27 34.09,201.76 28.56,195.83
             23.03,189.89 18.75,182.57 15.72,173.88
             12.70,165.18 11.19,155.22 11.19,144.00
             11.19,132.78 12.89,122.82 16.30,114.12
             19.71,105.43 24.32,98.12 30.11,92.19
             35.90,86.25 42.66,81.73 50.38,78.64
             58.09,75.55 66.33,74.00 75.08,74.00
             80.61,74.00 85.59,74.39 90.03,75.16
             94.48,75.93 98.34,76.83 101.62,77.86
             104.91,78.89 107.57,79.92 109.62,80.95
             111.69,81.98 113.10,82.76 113.88,83.27
             113.88,83.27 108.47,98.30 108.47,98.30
             107.31,97.53 105.64,96.70 103.45,95.80
             101.27,94.89 98.79,93.99 96.02,93.09
             93.25,92.19 90.23,91.45 86.95,90.88
             83.67,90.29 80.36,90.00 77.02,90.00
             69.93,90.00 63.55,91.23 57.89,93.70
             52.23,96.17 47.41,99.75 43.42,104.42
             39.44,109.10 36.39,114.79 34.27,121.48
             32.14,128.18 31.08,135.69 31.08,144.00
             31.08,152.06 32.01,159.41 33.88,166.03
             35.74,172.66 38.54,178.34 42.27,183.09
             46.00,187.84 50.67,191.51 56.27,194.11
             61.86,196.70 68.39,198.00 75.86,198.00
             84.47,198.00 91.61,197.11 97.27,195.31
             102.93,193.51 107.18,191.90 110.02,190.48
             110.02,190.48 114.83,205.52 114.83,205.52
             113.93,206.16 112.32,206.97 110.00,207.94
             107.69,208.90 104.79,209.83 101.31,210.73
             97.84,211.63 93.79,212.39 89.16,213.03
             84.53,213.68 79.52,214.00 74.11,214.00 Z"
    />
    <path
      d="M 169.67,198.00
           C 189.22,198.00 199.00,191.20 199.00,177.59
             199.00,173.41 198.13,169.84 196.39,166.91
             194.66,163.96 192.32,161.41 189.36,159.25
             186.40,157.09 183.02,155.29 179.22,153.86
             175.43,152.42 171.41,150.99 167.16,149.56
             162.27,148.01 157.64,146.17 153.27,144.03
             148.89,141.90 145.09,139.37 141.88,136.45
             138.66,133.54 136.11,130.07 134.25,126.06
             132.38,122.04 131.45,117.18 131.45,111.48
             131.45,99.70 135.44,90.51 143.42,83.91
             151.40,77.30 162.40,74.00 176.42,74.00
             184.52,74.00 191.89,74.87 198.52,76.61
             205.15,78.35 210.01,80.25 213.09,82.31
             213.09,82.31 207.11,97.33 207.11,97.33
             204.41,95.66 200.39,94.03 195.05,92.42
             189.70,90.81 183.49,90.00 176.42,90.00
             172.82,90.00 169.47,90.40 166.38,91.19
             163.29,91.97 160.59,93.15 158.27,94.73
             155.95,96.31 154.12,98.31 152.77,100.73
             151.42,103.16 150.75,106.02 150.75,109.30
             150.75,112.98 151.46,116.06 152.88,118.56
             154.29,121.05 156.29,123.25 158.86,125.16
             161.43,127.05 164.42,128.65 167.83,129.95
             171.24,131.25 175.01,132.54 179.12,133.84
             184.91,135.79 190.22,137.95 195.05,140.31
             199.87,142.67 204.05,145.48 207.59,148.77
             211.13,152.04 213.87,155.93 215.80,160.45
             217.72,164.98 218.69,170.45 218.69,176.86
             218.69,188.78 214.41,197.95 205.84,204.38
             197.29,210.79 185.23,214.00 169.67,214.00
             164.40,214.00 159.54,213.64 155.09,212.94
             150.66,212.23 146.70,211.39 143.23,210.44
             139.77,209.47 136.77,208.44 134.27,207.34
             131.75,206.25 129.79,205.32 128.38,204.55
             128.38,204.55 133.97,189.31 133.97,189.31
             136.93,190.99 141.43,192.86 147.47,194.92
             153.52,196.98 160.92,198.00 169.67,198.00 Z"
    />
    <path
      d="M 322.08,195.00
           C 322.08,195.00 322.08,211.00 322.08,211.00
             322.08,211.00 241.59,211.00 241.59,211.00
             241.59,211.00 241.59,77.00 241.59,77.00
             241.59,77.00 260.31,77.00 260.31,77.00
             260.31,77.00 260.31,195.00 260.31,195.00
             260.31,195.00 322.08,195.00 322.08,195.00 Z"
    />
    <path
      d="M 341.59,211.00
           C 341.59,211.00 341.59,77.00 341.59,77.00
             341.59,77.00 422.27,77.00 422.27,77.00
             422.27,77.00 422.27,93.00 422.27,93.00
             422.27,93.00 360.31,93.00 360.31,93.00
             360.31,93.00 360.31,133.00 360.31,133.00
             360.31,133.00 415.33,133.00 415.33,133.00
             415.33,133.00 415.33,149.00 415.33,149.00
             415.33,149.00 360.31,149.00 360.31,149.00
             360.31,149.00 360.31,211.00 360.31,211.00
             360.31,211.00 341.59,211.00 341.59,211.00 Z"
    />
    <path
      d="M 434.02,145.00
           C 434.02,145.00 481.69,145.00 481.69,145.00
             481.69,145.00 481.69,162.00 481.69,162.00
             481.69,162.00 434.02,162.00 434.02,162.00
             434.02,162.00 434.02,145.00 434.02,145.00 Z"
    />
    <path
      d="M 16.59,428.00
           C 16.59,428.00 16.59,294.00 16.59,294.00
             16.59,294.00 97.27,294.00 97.27,294.00
             97.27,294.00 97.27,310.00 97.27,310.00
             97.27,310.00 35.31,310.00 35.31,310.00
             35.31,310.00 35.31,350.00 35.31,350.00
             35.31,350.00 90.33,350.00 90.33,350.00
             90.33,350.00 90.33,366.00 90.33,366.00
             90.33,366.00 35.31,366.00 35.31,366.00
             35.31,366.00 35.31,428.00 35.31,428.00
             35.31,428.00 16.59,428.00 16.59,428.00 Z"
    />
    <path
      d="M 204.75,294.00
           C 204.75,294.00 223.47,294.00 223.47,294.00
             223.47,294.00 223.47,428.00 223.47,428.00
             223.47,428.00 204.75,428.00 204.75,428.00
             204.75,428.00 204.75,366.00 204.75,366.00
             204.75,366.00 139.31,366.00 139.31,366.00
             139.31,366.00 139.31,428.00 139.31,428.00
             139.31,428.00 120.59,428.00 120.59,428.00
             120.59,428.00 120.59,294.00 120.59,294.00
             120.59,294.00 139.31,294.00 139.31,294.00
             139.31,294.00 139.31,350.00 139.31,350.00
             139.31,350.00 204.75,350.00 204.75,350.00
             204.75,350.00 204.75,294.00 204.75,294.00 Z"
    />
  </g>
</svg>
